# xmcd
#
# Track frame offsets: 
#        151
#        42278
#        76293
#        124174
#        152560
#        182191
#        224621
#        268613
#        310530
#
# Disc length: 4444 seconds
#
# Revision: 3
# Processed by: cddbd v1.5.2PL0 Copyright (c) Steve Scherf et al.
# Submitted via: ExactAudioCopy v0.95a3
#
DISCID=76115a09
DTITLE=Various Artist - Designer Music V1
DYEAR=2000
DGENRE=Electronic
TTITLE0=UFO - Planet Plan (Carl Craig Mix)
TTITLE1=Carl Craig Vs. Johnny Blas - Picadillo (Carl Craig 12'' Mix)
TTITLE2=Incognito - Out of the Storm (C's Planet E Special Mix)
TTITLE3=Telex - Moscow Diskow (Carl Craig Remix)
TTITLE4=BT -  Moment of Truth (Carl Craig's Urban Affair Mix)
TTITLE5=Inner City - Beuna Vida (Carl Craig Mix)
TTITLE6=Spacetime Continuum - Kairo (Carl Craig Mix 2)
TTITLE7=Alexander Robotnik - Problèmes D'Amour (Carl Craig Mix)
TTITLE8=Ron Trent - Altered States (Carl Craig's East Side Remix)
EXTD=
EXTT0=UFO (Carl Craig Mix]\n
EXTT1=Johnny Blas (Carl Craig 12" Mix)
EXTT2=Incognito (C's Planet E Special)
EXTT3=Telex (Carl Craig Remix)
EXTT4=Carl Craig and BT
EXTT5=Carl Craig Mix\n
EXTT6=Carl Craig Mix #2\n
EXTT7=
EXTT8=Carl Craig's East Side Remix
PLAYORDER=
